<svg xmlns="http://www.w3.org/2000/svg" width="20" height="26" viewBox="0 0 20 26"><defs><clipPath id="tod5a"><path fill="#fff" d="M15.018 1.113c4.065 2.347 5.43 7.594 3.049 11.72-2.06 3.567-6.248 5.127-9.972 3.966l-4.977 8.62-2.56-1.478 4.911-8.506C2.133 12.872 1.153 8.128 3.344 4.332 5.726.207 10.952-1.234 15.018 1.113z"/></clipPath></defs><g><g><path fill="#fff" d="M15.018 1.113c4.065 2.347 5.43 7.594 3.049 11.72-2.06 3.567-6.248 5.127-9.972 3.966l-4.977 8.62-2.56-1.478 4.911-8.506C2.133 12.872 1.153 8.128 3.344 4.332 5.726.207 10.952-1.234 15.018 1.113z"/><path fill="none" stroke="#aeaeae" stroke-miterlimit="20" stroke-width="6" d="M15.018 1.113c4.065 2.347 5.43 7.594 3.049 11.72-2.06 3.567-6.248 5.127-9.972 3.966l-4.977 8.62-2.56-1.478 4.911-8.506C2.133 12.872 1.153 8.128 3.344 4.332 5.726.207 10.952-1.234 15.018 1.113z" clip-path="url(&quot;#tod5a&quot;)"/></g></g></svg>